<?xml version="1.0" encoding="UTF-8" standalone="no" ?>
<!DOCTYPE svg PUBLIC "-//W3C//DTD SVG 1.1//EN" "http://www.w3.org/Graphics/SVG/1.1/DTD/svg11.dtd">
<svg xmlns="http://www.w3.org/2000/svg" xmlns:xlink="http://www.w3.org/1999/xlink" version="1.1" width="1280" height="1024" viewBox="0 0 1280 1024" xml:space="preserve">
<desc>Created with Fabric.js 5.3.0</desc>
<defs>
</defs>
<g transform="matrix(1 0 0 1 640 512)" id="background-logo"  >
<rect style="stroke: none; stroke-width: 0; stroke-dasharray: none; stroke-linecap: butt; stroke-dashoffset: 0; stroke-linejoin: miter; stroke-miterlimit: 4; fill: rgb(255,255,255); fill-opacity: 0; fill-rule: nonzero; opacity: 1;"  paint-order="stroke"  x="-640" y="-512" rx="0" ry="0" width="1280" height="1024" />
</g>
<g transform="matrix(1.679618935299477 0 0 1.679618935299477 735.4679589940744 405.3504608604849)" id="shape-ebdeac6e-7e9c-4b81-b0d7-f9379fcf7379"  >
<g style="opacity: 0.3;"  paint-order="stroke"   >
		<g transform="matrix(1 0 0 1 0 0)" id="Path_01"  >
<linearGradient id="SVGID_246_5_354010" gradientUnits="userSpaceOnUse" gradientTransform="matrix(1 0 0 1 -0.00000111617957543331 0)"  x1="0" y1="0" x2="0" y2="168">
<stop offset="0%" style="stop-color:rgb(48,35,174);stop-opacity: 1"/>
<stop offset="100%" style="stop-color:rgb(200,109,215);stop-opacity: 1"/>
</linearGradient>
<path style="stroke: none; stroke-width: 1; stroke-dasharray: none; stroke-linecap: butt; stroke-dashoffset: 0; stroke-linejoin: miter; stroke-miterlimit: 4; fill: url(#SVGID_246_5_354010); fill-rule: nonzero; opacity: 1;"  paint-order="stroke"  transform=" translate(-124.99999944191019, -83.756308234389)" d="M 249.87393 76.38144 C 249.86246 72.34693 248.07442 68.51865 244.99119 65.9168 L 213.02426 38.98155 C 209.17305 35.72643 204.21013 34.110279999999996 199.17837 34.465599999999995 L 164.88467 36.8841 C 162.97049 37.02164 161.26269 37.846849999999996 160.00192 39.11917 C 158.72961 40.37994 157.90439 42.08774 157.77833 43.99044 C 153.52596 40.08192 147.86384 38.08758 142.09858 38.48872 L 120.69933 40.00169 L 120.99734000000001 35.88694 C 121.24954000000001 32.41398 119.66780000000001 29.07862 116.82523 27.072810000000004 L 106.5096 19.828940000000003 L 116.40115 29.055680000000002 C 118.89981 31.382460000000002 117.42127 35.55451 114.01714 35.795230000000004 L 70.15278 38.935750000000006 C 63.883140000000004 39.382780000000004 57.80839 36.67781000000001 53.934290000000004 31.726300000000005 L 37.56688 10.77406 C 35.732949999999995 8.41293 37.11985 4.940040000000001 40.07702 4.515960000000001 L 70.85194 0 L 40.08849 1.69633 C 34.17415 2.02869 29.131 6.07474 27.54926 11.7827 L 20.08761 38.58041 C 19.067490000000003 42.2482 19.812540000000002 46.19107 22.1049 49.2284 L 25.37149 54.99372 L 21.772470000000002 55.25732 C 19.250930000000004 55.79606 17.1534 57.56115 16.20205 59.9567 L 0.61401 99.15605 C -0.5436400000000001 102.68630999999999 -0.05079 106.56039999999999 1.97797 109.67805 L 34.27734 159.46815 C 38.15144 165.43971000000002 45.23483 168.5 52.23798000000001 167.22775000000001 L 105.19155 157.58839 C 110.06282 156.69435000000001 113.93692 152.95777 114.97991 148.10946 L 115.73643 144.64796 L 118.60188 146.98622 C 122.7854 150.39035 128.28705 151.697 133.54805 150.53935 L 173.89362999999997 141.65646 C 176.30057999999997 141.11778 178.43245999999996 139.90283000000002 180.07155999999998 138.20643 C 181.72205999999997 136.51011 182.86824 134.34380000000002 183.32666999999998 131.92538000000002 L 183.37248999999997 131.95980000000003 C 187.60190999999998 135.10033000000004 193.02337999999997 136.17774000000003 198.13530999999998 134.90543000000002 L 240.75037999999998 124.29184000000002 C 245.79352999999998 123.04247000000002 249.49568 118.74429000000002 249.99999999999997 113.56354000000002 L 249.87393 76.38144 z M 118.07461 97.02417 L 61.900270000000006 105.26521 C 54.725170000000006 106.31967999999999 47.573010000000004 103.15628 43.515550000000005 97.12734999999999 L 20.31687 62.70751 C 18.964380000000002 60.69022 19.755180000000003 57.9509 21.967370000000003 56.96513 L 37.727360000000004 54.09968 L 37.89925 54.065329999999996 L 75.13866 48.59802 C 81.21347 48.15099 87.12773 50.66113 91.03618 55.33757 L 120.50452 90.66287 C 122.45303 93.00106 121.08907 96.57714 118.07461 97.02417 z M 185.72223 84.53084 L 142.6143 91.56833999999999 C 136.13842 92.62286999999999 129.58223999999998 90.25027999999999 125.29552999999999 85.28729 L 97.16828 52.77014 C 95.10517 50.38606 96.57224 46.67245 99.70129 46.34008 L 141.49107 41.85847 C 147.13026000000002 41.25103 152.73510000000002 43.21096 156.76968 47.199709999999996 L 187.84262999999999 77.90588 C 190.11205 80.14095 188.87422 84.01505 185.72223 84.53084 z M 242.7562 75.94588 L 207.68302 80.90886 C 201.91778 81.72267000000001 196.08369 79.81998 191.90009 75.76252000000001 L 162.03063 46.77563000000001 C 159.63514 44.437380000000005 161.09081 40.36845000000001 164.42617 40.081900000000005 L 198.3531 37.21645 C 203.33903 36.80384 208.29054000000002 38.3741 212.10728 41.59487 L 244.72761 69.09173 C 247.3065 71.26952 246.10303 75.47598 242.7562 75.94588 z M 43.43289 9.25598 L 48.01571 8.78233 L 59.38897 19.97269 L 59.44326 19.96707 L 55.10378 8.04977 L 59.01053 7.646 L 71.52225 19.0462 L 71.57489 19.04075 L 66.23348999999999 6.899479999999999 L 70.49224999999998 6.459329999999999 L 77.90130999999998 24.978769999999997 L 74.15575999999999 25.365879999999997 L 60.96217999999999 13.382779999999997 L 60.90788999999999 13.388379999999996 L 65.69249999999998 26.240559999999995 L 62.08184999999998 26.613729999999997 L 43.43289 9.25598 z M 32.45599 58.73437 L 36.85025 58.1593 L 64.41592 79.07706 L 58.42109 79.86159 L 52.726 75.41008000000001 L 43.35962 76.63587000000001 L 44.97016 81.62192000000002 L 39.11253 82.38850000000002 L 32.45599 58.73437 z M 39.46776 64.95233 L 41.846019999999996 72.26295 L 47.73898 71.49174000000001 L 39.46776 64.95233 z M 124.39085 53.70782 C 123.5187 53.37255 122.61892 53.19677 121.68434 53.175909999999995 C 120.74978 53.155049999999996 119.96345000000001 53.23307 119.32397 53.40604 C 118.94757 53.50785 118.5988 53.64996 118.27391 53.83121 C 117.95276 54.01363 117.69302 54.23155 117.49845 54.48614 C 117.30387 54.74074 117.22754 55.0285 117.26774 55.34773 C 117.31137 55.67037 117.51748 56.01639 117.89322 56.39036 C 118.49199 56.98635 119.2169 57.37228 120.06653 57.54426 C 120.91585 57.71848 121.85474 57.80766 122.88694 57.81298 C 123.91882 57.820550000000004 125.01173 57.80946 126.16534999999999 57.78193 C 127.31895999999999 57.75441 128.50421 57.837770000000006 129.72342999999998 58.029230000000005 C 130.94261999999998 58.220670000000005 132.16289999999998 58.589920000000006 133.38624 59.13642000000001 C 134.61128 59.684610000000006 135.80488 60.53451000000001 136.96641 61.69059000000001 C 138.07301999999999 62.79202000000001 138.79238 63.81796000000001 139.13195 64.7707 C 139.47152 65.72344000000001 139.49667 66.58097000000001 139.21085 67.3467 C 138.92704 68.11187 138.36697999999998 68.77372 137.53669 69.33055 C 136.70268 69.88622000000001 135.67929999999998 70.33024 134.4651 70.65866 C 132.93927 71.07133 131.3274 71.25753999999999 129.63128 71.21898 C 127.93140000000001 71.17925 126.07867 70.87465 124.07134 70.30348000000001 L 124.32271 65.89429000000001 C 125.45339 66.34857000000001 126.58444 66.62900000000002 127.71958000000001 66.73678000000001 C 128.85473000000002 66.84456000000002 129.85317 66.78300000000002 130.71526 66.54983000000001 C 131.13617 66.43598000000001 131.51825 66.27836000000002 131.86524 66.07810000000002 C 132.21221 65.87784000000002 132.47176 65.64695000000002 132.64562 65.38708000000003 C 132.81978 65.12496000000003 132.88054 64.83708000000003 132.82850000000002 64.51889000000003 C 132.77647000000002 64.20070000000003 132.57287000000002 63.86484000000003 132.216 63.50965000000003 C 131.61723 62.91368000000003 130.87252 62.51571000000003 129.98361 62.317440000000026 C 129.09471 62.11918000000003 128.12169 62.00882000000003 127.0605 61.987450000000024 C 125.99728 61.96662000000003 124.86932 61.963320000000024 123.67659 61.97755000000002 C 122.48184 61.99230000000002 121.26981 61.90533000000002 120.03876000000001 61.71490000000002 C 118.80944000000001 61.52619000000002 117.58560000000001 61.16876000000002 116.37102000000002 60.643790000000024 C 115.15441000000001 60.11936000000002 113.99279000000001 59.30644000000002 112.88789000000001 58.20671000000002 C 111.81902000000001 57.142850000000024 111.13116000000001 56.14313000000002 110.82260000000001 55.205890000000025 C 110.51576000000001 54.27035000000002 110.50150000000001 53.41856000000003 110.78734000000001 52.65283000000002 C 111.07285000000002 51.88935000000002 111.62171000000002 51.224040000000024 112.43328000000001 50.66140000000002 C 113.24486000000002 50.09876000000002 114.22467000000002 49.66003000000002 115.37411000000002 49.34914000000002 C 116.69961000000002 48.99065000000002 118.14217000000002 48.80245000000002 119.69774000000001 48.78564000000002 C 121.25534 48.768300000000025 122.90598000000001 48.99725000000002 124.64935000000001 49.47475000000002 L 124.39085 53.70782 z M 169.74008 45.34291 C 169.25656 44.89549 169.54478 44.08679 170.20228 44.046020000000006 C 173.38088 43.84890000000001 179.89948 43.43844000000001 181.17468 43.30968000000001 C 182.87462 43.140010000000004 184.59802 43.213260000000005 186.34482 43.52942000000001 C 188.08998 43.84613000000001 189.84085 44.43529000000001 191.59601 45.29345000000001 C 193.3494 46.154180000000004 195.04885000000002 47.34483000000001 196.68961000000002 48.86312000000001 C 198.14444 50.20937000000001 199.13526000000002 51.49565000000001 199.65732000000003 52.71966000000001 C 200.18093000000002 53.94510000000001 200.32186000000002 55.07316000000001 200.08324000000002 56.10670000000001 C 199.84461000000002 57.14024000000001 199.27291000000002 58.05756000000001 198.36495000000002 58.85785000000001 C 198.18334000000002 59.018310000000014 197.99134 59.17233000000002 197.78901000000002 59.31994000000002 C 196.39401 60.337660000000014 194.66204000000002 60.784610000000015 192.93525000000002 60.784610000000015 L 186.42738000000003 60.784610000000015 L 169.74008 45.34291 z M 186.9897 55.97031 C 186.9897 55.97031 194.50363 56.955529999999996 194.41057 54.7896 C 194.59198 54.18314 194.50835 53.49424 194.15793 52.72542 C 193.80752999999999 51.95661 193.12252999999998 51.10151 192.1077 50.16244 C 191.22766 49.348099999999995 190.2874 48.69925 189.28369 48.21501 C 188.28154 47.73221 187.27037 47.39552 186.25342 47.20584 C 185.23482 47.01672 184.21929 46.95984 183.20516 47.035740000000004 C 182.19257000000002 47.11307000000001 177.71297 47.38606000000001 177.71297 47.38606000000001 L 186.9897 55.97031 z" stroke-linecap="round" />
</g>
</g>
</g>
<g transform="matrix(1.9211538461538462 0 0 1.9211538461538462 735.1562517825358 408.5967497835618)" id="text-logo"  >
<g style=""  paint-order="stroke"   >
		<g transform="matrix(1 0 0 1 0 0)" id="text-logo-path-0"  >
<path style="stroke: rgb(0,0,0); stroke-width: 2.6908260952767633; stroke-dasharray: none; stroke-linecap: butt; stroke-dashoffset: 0; stroke-linejoin: miter; stroke-miterlimit: 4; fill: rgb(0,0,0); fill-rule: nonzero; opacity: 1;"  paint-order="stroke"  transform=" translate(-212.165, 16.845)" d="M 2.95 -20.24 L 2.95 -17.82 C 8.08 -17.76 9.15 -14.57 9.15 -10.5 L 9.15 -2.24 C 9.15 4.31 12.69 7.55 19.06 7.55 L 19.06 5.19 C 14.34 5.19 12.33 2.66 12.33 -2.18 L 12.33 -10.38 C 12.33 -14.16 11.03 -17.41 8.44 -19 C 11.03 -20.53 12.33 -23.54 12.33 -27.67 L 12.33 -35.75 C 12.33 -41.06 15.4 -43.37 19.12 -43.37 L 19.12 -45.73 C 13.87 -45.73 9.15 -43.01 9.15 -35.87 L 9.15 -27.55 C 9.15 -23.72 8.44 -20.3 2.95 -20.24 Z M 39.06 -41.3 L 27.38 -41.3 L 27.38 -38.05 L 31.51 -38.05 L 31.51 -3.25 L 27.38 -3.25 L 27.38 0 L 39.06 0 L 39.06 -3.25 L 34.93 -3.25 L 34.93 -16.76 L 42.19 -22.07 L 60.48 -3.25 L 57.41 -3.25 L 57.41 0 L 68.2 0 L 68.2 -3.25 L 64.66 -3.25 L 44.6 -23.9 L 62.36 -38.05 L 66.79 -38.05 L 66.79 -41.3 L 55.22 -41.3 L 55.22 -38.05 L 57.76 -38.05 L 34.93 -20.47 L 34.93 -38.05 L 39.06 -38.05 Z M 79.71 -14.57 L 105.55 -14.57 L 105.61 -16.82 C 105.61 -22.3 102.25 -30.03 91.51 -30.03 C 81.36 -30.03 76.46 -22.89 76.46 -14.51 C 76.46 -7.08 80.53 0.53 91.1 0.53 C 99.47 0.53 103.19 -3.66 104.67 -7.43 L 101.48 -7.43 C 100.18 -5.02 97.88 -2.12 91.27 -2.12 C 84.37 -2.12 79.71 -6.79 79.71 -14.57 Z M 79.89 -16.93 C 80.65 -23.25 84.02 -27.38 91.39 -27.38 C 98.41 -27.38 102.25 -22.89 102.31 -16.93 Z M 123.43 -29.5 L 113.87 -29.5 L 113.87 -26.26 L 117.06 -26.26 L 128.97 1.12 C 126.32 7.26 124.67 8.85 119.47 8.85 L 116.53 8.85 L 116.53 12.04 L 119.53 12.04 C 125.85 12.04 128.32 10.15 131.98 1.48 L 143.72 -26.26 L 146.85 -26.26 L 146.85 -29.5 L 137.29 -29.5 L 137.29 -26.26 L 140.48 -26.26 L 130.63 -2.24 L 120.42 -26.26 L 123.43 -26.26 Z M 171.28 -17.82 L 171.28 -20.24 C 165.79 -20.3 165.08 -23.72 165.08 -27.55 L 165.08 -35.87 C 165.08 -43.01 160.36 -45.73 155.11 -45.73 L 155.11 -43.37 C 158.83 -43.37 161.9 -41.06 161.9 -35.75 L 161.9 -27.67 C 161.9 -23.54 163.19 -20.53 165.79 -19 C 163.19 -17.41 161.9 -14.16 161.9 -10.38 L 161.9 -2.18 C 161.9 2.66 159.89 5.19 155.17 5.19 L 155.17 7.55 C 161.54 7.55 165.08 4.31 165.08 -2.24 L 165.08 -10.5 C 165.08 -14.57 166.14 -17.76 171.28 -17.82 Z M 250.1 -38.23 L 249.81 -3.25 L 245.68 -3.3 L 245.68 -0.06 L 249.81 0 L 257.36 0 L 257.36 -3.25 L 253.23 -3.25 L 253.23 -38.05 L 257.36 -38.05 L 257.36 -41.3 L 247.86 -41.3 L 229.86 -3.6 L 212.64 -41.3 L 203.08 -41.3 L 203.08 -38.05 L 207.21 -38.05 L 207.21 -3.25 L 203.08 -3.25 L 203.08 0 L 214.76 0 L 214.76 -3.25 L 210.63 -3.25 L 210.57 -38.23 L 227.86 0 L 231.34 0 Z M 291.93 -3.25 L 291.93 -21.06 C 291.93 -27.44 287.57 -30.21 279.66 -30.21 C 270.22 -30.21 267.8 -25.55 267.33 -22.3 L 270.52 -22.3 C 271.28 -24.72 272.46 -27.55 279.54 -27.55 C 287.74 -27.55 288.81 -23.78 288.81 -20.77 L 288.81 -17.23 L 281.96 -17.23 C 271.46 -17.23 265.62 -14.34 265.62 -7.97 C 265.62 -3.6 269.04 0.71 277.12 0.71 C 284.26 0.71 287.63 -2.6 288.81 -4.72 L 288.81 0 L 296.06 0 L 296.06 -3.25 Z M 268.98 -8.26 C 268.98 -13.33 274 -14.69 281.78 -14.69 L 288.86 -14.69 L 288.86 -13.45 C 288.86 -9.2 287.45 -1.95 277.24 -1.95 C 272.23 -1.95 268.98 -4.48 268.98 -8.26 Z M 307.57 -7.97 L 304.32 -7.97 L 304.32 0 L 307.39 0 L 307.39 -2.54 C 309.63 -0.59 313.05 0.53 317.6 0.53 C 324.91 0.53 329.99 -2.71 329.99 -7.97 C 329.99 -12.33 327.63 -14.93 317.77 -16.93 C 310.75 -18.35 308.98 -19.77 308.98 -22.6 C 308.98 -25.02 310.81 -27.38 317.01 -27.38 C 322.97 -27.38 325.27 -24.6 325.98 -22.13 L 329.22 -22.13 L 329.22 -29.5 L 326.15 -29.5 L 326.15 -27.38 C 324.21 -28.97 321.2 -30.03 317.13 -30.03 C 309.28 -30.03 305.74 -26.37 305.74 -22.36 C 305.74 -18.53 307.92 -15.93 316.89 -14.1 C 324.85 -12.51 326.62 -11.21 326.62 -7.73 C 326.62 -4.31 324.03 -2.12 317.72 -2.12 C 312.11 -2.12 308.75 -4.07 307.57 -7.97 Z M 338.25 -29.56 L 338.25 -26.31 L 344.74 -26.31 L 344.74 -6.43 C 344.74 -1.83 347.04 0 351.64 0 L 355.83 0 L 355.83 -2.42 L 352.35 -2.42 C 348.81 -2.42 347.92 -4.43 347.92 -7.79 L 347.92 -26.31 L 356.18 -26.31 L 356.18 -29.56 L 347.92 -29.56 L 347.92 -38.76 L 344.74 -38.76 L 344.74 -29.56 Z M 367.69 -14.57 L 393.53 -14.57 L 393.59 -16.82 C 393.59 -22.3 390.23 -30.03 379.49 -30.03 C 369.34 -30.03 364.44 -22.89 364.44 -14.51 C 364.44 -7.08 368.51 0.53 379.08 0.53 C 387.45 0.53 391.17 -3.66 392.65 -7.43 L 389.46 -7.43 C 388.16 -5.02 385.86 -2.12 379.25 -2.12 C 372.35 -2.12 367.69 -6.79 367.69 -14.57 Z M 367.87 -16.93 C 368.63 -23.25 372 -27.38 379.37 -27.38 C 386.39 -27.38 390.23 -22.89 390.29 -16.93 Z M 405.98 -26.26 L 405.98 -3.25 L 401.85 -3.25 L 401.85 0 L 413.3 0 L 413.3 -3.25 L 409.17 -3.25 L 409.17 -15.52 C 409.17 -22.6 414.06 -27.38 421.38 -27.38 L 421.38 -30.21 C 415.83 -30.21 411.17 -27.91 409.17 -23.6 L 409.17 -29.5 L 401.85 -29.5 L 401.85 -26.26 Z" stroke-linecap="round" />
</g>
</g>
</g>
</svg>